HIERARCHY
ROOT hip
{
	OFFSET 0.000000 0.000000 0.000000 
	CHANNELS 6 Xposition Yposition Zposition Xrotation Zrotation Yrotation
	JOINT abdomen
	{
		OFFSET 0.000000 3.402643 0.000000 
		CHANNELS 3 Xrotation Zrotation Yrotation
		JOINT chest
		{
			OFFSET 0.000000 8.438565 -0.680529 
			CHANNELS 3 Xrotation Zrotation Yrotation
			JOINT neck
			{
				OFFSET 0.000000 10.207942 -0.272212 
				CHANNELS 3 Xrotation Zrotation Yrotation
				JOINT head
				{
					OFFSET 0.000000 3.130431 0.000000 
					CHANNELS 3 Xrotation Zrotation Yrotation
					End Site
					{
						OFFSET 0.000000 3.130435 0.000000 
					}
				}
			}
			JOINT lCollar
			{
				OFFSET 3.470700 6.669187 -0.816635 
				CHANNELS 3 Yrotation Zrotation Xrotation
				JOINT lShldr
				{
					OFFSET 3.198488 0.000000 0.000000 
					CHANNELS 3 Zrotation Yrotation Xrotation
					JOINT lForeArm
					{
						OFFSET 10.139888 0.000000 0.000000 
						CHANNELS 3 Yrotation Zrotation Xrotation
						JOINT lHand
						{
							OFFSET 8.370511 0.000000 0.000000 
							CHANNELS 3 Zrotation Yrotation Xrotation
							End Site
							{
								OFFSET 4.083176 0.000000 0.000000 
							}
						}
					}
				}
			}
			JOINT rCollar
			{
				OFFSET -3.470700 6.669187 -0.816635 
				CHANNELS 3 Yrotation Zrotation Xrotation
				JOINT rShldr
				{
					OFFSET -3.198488 0.000000 0.000000 
					CHANNELS 3 Zrotation Yrotation Xrotation
					JOINT rForeArm
					{
						OFFSET -10.139888 0.000000 0.000000 
						CHANNELS 3 Yrotation Zrotation Xrotation
						JOINT rHand
						{
							OFFSET -8.370511 0.000000 0.000000 
							CHANNELS 3 Zrotation Yrotation Xrotation
							End Site
							{
								OFFSET -4.083176 0.000000 0.000000 
							}
						}
					}
				}
			}
		}
	}
	JOINT lThigh
	{
		OFFSET 5.308129 -1.633274 1.361059 
		CHANNELS 3 Xrotation Zrotation Yrotation
		JOINT lShin
		{
			OFFSET -2.041588 -20.007561 0.000000 
			CHANNELS 3 Xrotation Zrotation Yrotation
			JOINT lFoot
			{
				OFFSET 0.000000 -19.190928 -1.224953 
				CHANNELS 3 Xrotation Yrotation Zrotation
				End Site
				{
					OFFSET 0.000000 -2.449906 4.627600 
				}
			}
		}
	}
	JOINT rThigh
	{
		OFFSET -5.308129 -1.633274 1.361059 
		CHANNELS 3 Xrotation Zrotation Yrotation
		JOINT rShin
		{
			OFFSET 2.041588 -20.007561 0.000000 
			CHANNELS 3 Xrotation Zrotation Yrotation
			JOINT rFoot
			{
				OFFSET 0.000000 -19.190928 -1.224953 
				CHANNELS 3 Xrotation Yrotation Zrotation
				End Site
				{
					OFFSET 0.000000 -2.449906 4.627600 
				}
			}
		}
	}
}
MOTION
Frames: 16
Frame Time: 0.011111
-4.723560 76.922180 -14.362847 -3.768693 0.375760 165.793610 34.451630 -3.338620 2.969002 -22.675531 -1.055779 1.314591 -9.754208 -3.949068 2.461396 22.828346 5.457398 6.749343 2.424333 -4.683778 1.783845 -60.343983 -43.817043 17.050892 -49.630547 7.613894 8.004722 8.524705 12.647240 -47.972057 -2.738486 -1.140572 2.095526 73.532745 42.513599 44.492092 67.980011 -9.345632 16.103170 -8.534408 -12.637552 37.542828 -38.885620 10.722305 18.411304 74.495300 -0.954479 -9.162267 -40.655079 -5.183355 -3.842396 -2.075104 -2.982006 11.757178 33.079647 5.120954 5.237813 -2.041042 -3.717759 2.972841 
-4.745815 77.050583 -14.481032 -3.835464 0.370686 165.821747 34.370403 -3.533542 2.864092 -22.695158 -0.938348 1.308046 -9.773495 -3.956087 2.474602 22.907938 5.468482 6.800206 2.424333 -4.683778 1.783845 -60.384212 -43.816593 16.778364 -49.484463 7.578856 7.946317 8.524705 12.647240 -48.225964 -2.738486 -1.140572 2.095526 73.547195 42.366749 44.727013 68.150383 -9.336834 16.198933 -8.534408 -12.637552 37.923687 -38.484394 10.702108 18.383610 74.018417 -1.012779 -9.132879 -40.437431 -6.396431 -4.916460 -2.261441 -3.051932 11.902267 32.960384 5.130373 5.210609 -0.959185 -4.046348 3.016483 
-4.766264 77.178398 -14.584183 -3.846202 0.237122 165.908783 34.374615 -3.874280 2.588199 -22.744162 -0.792768 1.270980 -9.782552 -3.925085 2.480227 22.914719 5.404755 6.801637 2.424333 -4.683778 1.783845 -60.396591 -43.923885 16.378199 -49.213909 7.516062 7.838348 8.524705 12.647240 -48.499401 -2.738486 -1.140572 2.095526 73.655159 42.286282 45.003521 68.265930 -9.325448 16.241861 -8.534408 -12.637552 38.304543 -38.020424 10.493389 18.426638 73.434814 -1.101471 -9.097287 -40.131798 -7.225101 -5.641146 -2.488401 -3.259740 12.021305 32.861038 5.131287 5.211155 -0.149380 -5.113625 3.027755 
-4.793631 77.320641 -14.693048 -3.858935 0.199163 166.106812 34.422115 -4.015947 2.373250 -22.802847 -0.734769 1.238976 -9.881395 -3.925260 2.461012 23.029398 5.360096 6.756840 2.424333 -4.683778 1.783845 -60.359741 -44.080570 16.152664 -48.953136 7.450090 7.732793 8.524705 12.647240 -48.655647 -2.738486 -1.140572 2.095526 73.801933 42.165890 44.900280 68.478790 -9.312309 16.353241 -8.534408 -12.637552 37.855328 -37.536449 10.252361 18.872665 72.908386 -1.150027 -9.075357 -40.229713 -5.227199 -3.944461 -2.564364 -3.394057 11.993736 32.819782 5.146211 5.202059 0.579098 -6.005898 3.095263 
-4.820696 77.462585 -14.806423 -3.899698 0.395928 166.259018 34.447918 -3.926627 2.409607 -22.802809 -0.784102 1.232205 -9.890708 -3.886300 2.455287 22.988842 5.340746 6.727163 2.424333 -4.683778 1.783845 -60.340897 -44.139385 16.201035 -48.953136 7.450090 7.732793 8.524705 12.647240 -48.479870 -2.738486 -1.140572 2.095526 73.928505 42.045921 44.698826 68.667542 -9.293756 16.442982 -8.534408 -12.637552 37.386578 -37.219608 10.327125 18.430962 72.373123 -1.218486 -9.037688 -39.847237 -7.074432 -5.529482 -2.585168 -3.268894 12.016306 32.790844 5.140826 5.197988 1.596142 -6.699899 3.165975 
-4.844153 77.591301 -14.922805 -3.940530 0.592901 166.410950 34.403744 -3.830770 2.481690 -22.724575 -0.892430 1.247134 -9.841695 -3.815029 2.417955 22.870138 5.360843 6.666200 2.424333 -4.683778 1.783845 -60.302990 -44.247238 16.265524 -48.932816 7.447237 7.722342 8.524705 12.647240 -48.265026 -2.738486 -1.140572 2.095526 74.037941 42.004475 44.731194 68.700043 -9.292387 16.455563 -8.534408 -12.637552 37.484234 -36.805832 10.341296 18.711309 71.924644 -1.277103 -9.027321 -39.940365 -5.309233 -4.028852 -2.640592 -3.109804 12.077641 32.790844 5.140830 5.197989 2.586753 -7.339479 3.276283 
-4.867910 77.728432 -15.042797 -3.972237 0.774220 166.583572 34.362572 -3.738877 2.475497 -22.675735 -0.923312 1.238340 -9.851654 -3.861005 2.436845 22.857637 5.487701 6.716339 2.424333 -4.683778 1.783845 -60.344948 -44.324909 16.178537 -48.827736 7.415419 7.676237 8.524705 12.647240 -48.138069 -2.738486 -1.140572 2.095526 74.095016 41.915310 44.830521 68.763329 -9.287255 16.492826 -8.534408 -12.637552 37.650249 -36.437290 10.355616 18.372509 71.379501 -1.345160 -8.987137 -39.566296 -6.560782 -5.120181 -2.681677 -3.014219 12.019506 32.831707 5.131225 5.198845 3.424828 -7.720086 3.354328 
-4.888060 77.847816 -15.149556 -4.024004 0.984578 166.811905 34.362610 -3.589784 2.420174 -22.675833 -0.876864 1.196633 -9.959501 -4.002956 2.512710 22.913002 5.559787 6.831392 2.424333 -4.683778 1.783845 -60.447945 -44.431187 16.034300 -48.703316 7.386874 7.628413 8.524705 12.647240 -48.099010 -2.738486 -1.140572 2.095526 74.088905 41.759129 44.902122 68.848808 -9.281493 16.531782 -8.534408 -12.637552 38.118999 -36.128513 10.348775 18.414366 70.912666 -1.422328 -8.948500 -39.489056 -5.395072 -4.151805 -2.761475 -2.859625 11.970925 32.941250 5.120778 5.225651 4.231570 -8.486013 3.480730 
-4.908509 77.966309 -15.250601 -4.065889 1.108467 167.026947 34.305401 -3.550554 2.389988 -22.617334 -0.800656 1.181476 -9.970846 -4.100331 2.521622 22.841063 5.481302 6.794521 2.424333 -4.683778 1.783845 -60.553806 -44.664394 16.023846 -48.464233 7.327201 7.532323 8.524705 12.647240 -48.001354 -2.738486 -1.140572 2.095526 74.045143 41.672150 44.900993 68.857529 -9.276905 16.533747 -8.534408 -12.637552 38.597515 -35.819801 10.302498 17.919163 70.386566 -1.490420 -8.917866 -39.103062 -7.326675 -5.775010 -2.913740 -2.778859 11.867251 33.100647 5.116672 5.218990 5.038578 -9.154368 3.627361 
-4.933770 78.098328 -15.364577 -3.983104 1.092362 167.217133 34.290936 -3.704016 2.304659 -22.607626 -0.752110 1.178529 -10.042410 -4.065753 2.423977 23.082012 5.464025 6.630568 2.424333 -4.683778 1.783845 -60.636753 -44.770885 15.905554 -48.308746 7.290580 7.474393 8.524705 12.647240 -47.991589 -2.738486 -1.140572 2.095526 74.008469 41.506859 44.913189 68.826668 -9.281354 16.518799 -8.534408 -12.637552 38.724468 -35.267345 10.083709 17.969332 69.850410 -1.550571 -8.889555 -39.048122 -7.347231 -5.798098 -2.981030 -2.895152 11.693509 33.287807 5.116725 5.254837 5.768602 -9.596410 3.738722 
-4.959332 78.234261 -15.490281 -3.881114 0.983188 167.423752 34.243214 -3.960729 2.058015 -22.558941 -0.667027 1.143654 -10.396663 -4.014641 2.373888 23.660677 5.499382 6.594836 2.424333 -4.683778 1.783845 -60.767189 -44.749874 15.449478 -48.339878 7.297817 7.485000 8.524705 12.647240 -48.265026 -2.738486 -1.140572 2.095526 74.025238 41.418568 45.069992 68.742767 -9.289950 16.480673 -8.534408 -12.637552 38.734234 -34.594925 9.694033 18.399185 69.363220 -1.618735 -8.860536 -39.262028 -5.515959 -4.273208 -3.060167 -3.149459 11.456424 33.537224 5.096796 5.281384 6.391105 -9.898822 3.840450 
-4.982488 78.360870 -15.603658 -3.883649 1.246424 167.552734 34.217678 -3.802663 2.159427 -22.549095 -0.725169 1.156603 -10.189284 -4.023643 2.412677 23.329021 5.504547 6.646004 2.424333 -4.683778 1.783845 -60.938320 -44.747906 15.049997 -48.412579 7.317611 7.522308 8.524705 12.647240 -48.587292 -2.738486 -1.140572 2.095526 74.083466 41.358688 45.081444 68.614441 -9.297692 16.418272 -8.534408 -12.637552 38.480328 -34.230473 9.789443 18.087952 68.884949 -1.657694 -8.841235 -38.993294 -6.276568 -4.907884 -3.094631 -2.928991 11.313329 33.775314 5.082038 5.327094 6.939468 -10.152703 3.923278 
-4.995119 78.461906 -15.651774 -3.943438 1.689999 167.637543 34.333107 -3.519914 2.461401 -22.724720 -0.797276 1.202472 -9.927402 -4.452458 1.992444 23.042595 6.399009 5.871980 2.424333 -4.683778 1.783845 -61.119286 -44.736042 14.878241 -48.412579 7.317611 7.522308 8.524705 12.647240 -48.821667 -2.738486 -1.140572 2.095526 74.059166 41.251747 44.888878 68.489143 -9.310737 16.354431 -8.534408 -12.637552 38.089703 -34.136261 10.153072 17.699409 68.436775 -1.716015 -8.807610 -38.635433 -6.977291 -5.514280 -3.258385 -2.430045 11.465320 34.034039 5.067594 5.346246 7.280821 -10.524112 4.017651 
-5.024590 78.600548 -15.779884 -3.888752 1.559882 167.844406 34.165997 -3.703393 2.228780 -22.588152 -0.724381 1.157097 -10.059383 -3.971485 2.449079 23.457872 5.084927 6.716077 2.424333 -4.683778 1.783845 -61.249470 -44.705227 14.705363 -48.329056 7.293649 7.484721 8.524705 12.647240 -49.046276 -2.738486 -1.140572 2.095526 74.075203 41.143936 44.869907 68.320702 -9.325762 16.276987 -8.534408 -12.637552 37.611187 -33.518974 9.741824 17.916668 67.931129 -1.793057 -8.743105 -38.761337 -5.918059 -4.632732 -3.373289 -2.702032 11.206726 34.302860 5.042842 5.391607 7.490262 -10.249290 3.986645 
-5.053159 78.733772 -15.902584 -3.949512 1.573408 168.075943 33.886040 -3.715499 2.076131 -22.422232 -0.700599 1.114397 -10.408752 -3.534442 2.605239 23.975664 3.662575 6.899520 2.424333 -4.683778 1.783845 -61.331356 -44.762871 14.499173 -48.153294 7.253515 7.416739 8.524705 12.647240 -49.466202 -2.738486 -1.140572 2.095526 74.161774 41.034580 44.911507 68.066025 -9.342866 16.149828 -8.534408 -12.637552 37.113140 -33.195599 9.555292 17.659163 67.414032 -1.862050 -8.719620 -38.411957 -6.612096 -5.220809 -3.567323 -2.799111 10.958517 34.621819 5.018894 5.413082 7.412204 -9.983911 3.960480 
-5.079324 78.828804 -15.997912 -4.020983 1.966723 168.300003 33.727974 -3.328140 2.274174 -22.402601 -0.799020 1.109679 -10.553171 -3.471760 2.648144 24.519018 3.525888 7.059031 2.424333 -4.683778 1.783845 -61.462891 -44.790627 14.482535 -48.007576 7.214331 7.360897 8.524705 12.647240 -49.739632 -2.738486 -1.140572 2.095526 74.144630 40.849335 44.855972 67.790001 -9.359796 16.012640 -8.534408 -12.637552 36.790871 -32.906425 9.694674 17.511435 66.955322 -1.910708 -8.696666 -38.267437 -5.929472 -4.695284 -3.709707 -2.460447 10.693570 34.998272 4.999671 5.469351 7.190129 -9.704881 3.897538 
